<?xml version="1.0" encoding="iso-8859-1"?>
<!-- Generator: Adobe Illustrator 19.0.0, SVG Export Plug-In . SVG Version: 6.00 Build 0)  -->
<!-- License: CC0. Made by SVG Repo: https://www.svgrepo.com/svg/269015/buy -->
<svg version="1.1" id="Layer_1" xmlns="http://www.w3.org/2000/svg" xmlns:xlink="http://www.w3.org/1999/xlink" x="0px" y="0px"
	 viewBox="0 0 512 512" style="enable-background:new 0 0 512 512;" xml:space="preserve">
<g>
	<path style="fill:#FF9600;" d="M43.445,133.318L43.445,133.318c67.494-116.904,218.373-157.332,335.28-89.835l0,0
		c115.604,66.744,156.423,215.017,92.057,331.355l-0.389,0.465l-64.969-17.408l-64.969-17.411l17.408,64.969l17.383,64.862
		c-72.988,40.354-164.859,42.8-241.963-1.717l0,0C16.376,401.105-24.053,250.228,43.445,133.318z"/>
	<path style="fill:#FFD72E;" d="M256.004,53.541c111.835,0,202.497,90.662,202.497,202.497c0,39.607-11.38,76.554-31.039,107.761
		l-22.039-5.903l-64.969-17.411l17.408,64.969l5.907,22.037c-31.208,19.66-68.153,31.043-107.764,31.043
		c-111.835,0-202.496-90.661-202.496-202.496C53.508,144.203,144.169,53.541,256.004,53.541z"/>
	<polygon style="fill:#FF2C47;" points="437.274,408.417 501.257,472.399 472.368,501.29 408.387,437.305 375.27,470.421 
		357.861,405.454 340.454,340.484 405.421,357.895 470.391,375.3 	"/>
</g>
<g>
	<path style="fill:#000003;" d="M452.367,408.419l24.317-24.316c1.225-0.885,2.287-2.036,3.07-3.444
		c32.767-58.815,40.888-127.219,22.867-192.61c-18.041-65.463-60.146-120.086-118.56-153.811
		C325.049,0.167,256.056-8.815,189.793,8.939C123.527,26.695,68.272,68.972,34.204,127.982
		c-34.071,59.01-43.055,128.003-25.3,194.267C26.66,388.514,68.936,443.77,127.945,477.838c8.205,4.737,16.655,8.997,25.3,12.774
		h-3.955c-5.894,0-10.671,4.779-10.671,10.671s4.778,10.671,10.671,10.671l105.864,0.001c0.043,0,0.084,0.001,0.127,0.001
		c0.019,0,0.039,0,0.059,0c0.043,0,0.085-0.001,0.128-0.001l107.25,0.001c5.894,0,10.671-4.779,10.671-10.672
		c0-5.893-4.778-10.671-10.671-10.671h-4.605c7.149-3.094,14.164-6.515,21.02-10.253c1.358-0.527,2.618-1.324,3.683-2.388
		l25.57-25.571l56.436,56.437c2.001,2.001,4.715,3.126,7.545,3.126s5.544-1.125,7.547-3.126l28.888-28.889
		c4.168-4.167,4.168-10.924,0-15.093L452.367,408.419z M29.519,316.727c-16.279-60.759-8.052-123.998,23.168-178.072
		c31.218-54.074,81.872-92.82,142.63-109.099c60.755-16.28,123.997-8.053,178.072,23.167
		c107.961,62.33,147.962,199.923,91.672,310.107l-121.844-32.648c-3.689-0.989-7.614,0.068-10.309,2.762
		c-2.697,2.696-3.75,6.626-2.762,10.308l32.588,121.624c-70.642,35.836-155.834,33.905-224.118-5.519
		C84.544,428.137,45.799,377.484,29.519,316.727z M472.368,486.199l-56.434-56.437c-2.001-2.001-4.717-3.126-7.547-3.126
		c-2.83,0-5.544,1.125-7.545,3.126l-20.046,20.047l-25.249-94.229l94.228,25.248l-20.046,20.044
		c-2.001,2.001-3.125,4.716-3.125,7.546c0,2.83,1.124,5.544,3.125,7.546l56.438,56.437L472.368,486.199z"/>
	<path style="fill:#000003;" d="M119.46,308.869h16.876c14.798,0,25.135-1.165,31.015-3.497
		c10.234-4.053,15.354-13.275,15.354-27.669c0-7.197-1.595-12.796-4.788-16.799c-3.192-4.004-7.981-6.766-14.367-8.285
		c5.473-1.824,9.477-4.715,12.011-8.665c2.533-3.954,3.8-9.226,3.8-15.812c0-7.804-2.078-13.81-6.233-18.017
		c-4.157-4.205-10.591-6.765-19.307-7.676c-5.271-0.608-10.794-0.911-16.572-0.911h-17.787c-10.644,0-15.962,5.576-15.962,16.724
		v74.493c0,5.675,1.291,9.78,3.876,12.314C109.958,307.602,113.987,308.869,119.46,308.869z M124.477,223.883
		c0-3.648,1.52-5.471,4.562-5.471h10.488c4.46,0,7.805,0.304,10.034,0.912c2.838,0.911,4.991,2.253,6.462,4.028
		c1.468,1.771,2.204,4.636,2.204,8.589c0,5.979-2.28,9.931-6.841,11.858c-2.127,0.911-6.435,1.368-12.922,1.368h-13.986V223.883z
		 M124.477,261.891h14.898c6.791,0,11.505,0.509,14.139,1.521c5.169,2.13,7.755,6.235,7.755,12.314
		c0,7.501-2.433,12.215-7.299,14.141c-2.531,1.014-6.687,1.521-12.466,1.521h-11.249c-2.128,0-3.624-0.457-4.485-1.368
		c-0.86-0.912-1.292-2.382-1.292-4.409L124.477,261.891L124.477,261.891z"/>
	<path style="fill:#000003;" d="M406.688,201.839c-1.52-0.506-6.639-0.76-15.355-0.76c-2.432,0-4.511,1.521-6.234,4.561
		c-10.641,17.534-17.888,30.001-21.739,37.4c-4.662-9.023-11.859-21.591-21.588-37.707c-1.622-2.836-3.65-4.255-6.08-4.255
		c-10.236,0-15.911,0.202-17.026,0.607c-1.319,0.608-1.978,1.571-1.978,2.889c0,1.115,0.658,2.786,1.978,5.017l33.444,54.732v40.134
		c0,3.04,1.367,4.561,4.106,4.561h12.771c1.215,0,2.228-0.406,3.039-1.215c0.813-0.813,1.218-1.926,1.218-3.347v-40.746
		l33.447-54.426c1.218-2.127,1.824-3.75,1.824-4.863C408.512,203.208,407.905,202.346,406.688,201.839z"/>
	<path style="fill:#000003;" d="M290.592,296.251c1.826-3.143,3.041-6.943,3.65-11.404c0.608-4.46,0.91-10.742,0.91-18.851v-60.356
		c0-2.84-1.215-4.257-3.65-4.257H279.19c-2.737,0-4.106,1.417-4.106,4.257v65.524c0,7.804-1.115,13.276-3.343,16.419
		c-2.635,3.85-8.614,5.776-17.94,5.776c-8.614,0-14.342-2.024-17.181-6.081c-2.129-2.94-3.191-8.411-3.191-16.418v-65.221
		c0-2.84-1.165-4.257-3.497-4.257h-13.379c-2.737,0-4.104,1.417-4.104,4.257v60.659c0,14.393,1.115,24.019,3.344,28.884
		c4.866,10.541,17.128,15.812,36.793,15.812C271.943,310.997,284.611,306.083,290.592,296.251z"/>
	<path style="fill:#000003;" d="M206.289,441.581c-66.076-17.707-118.122-69.752-135.826-135.825
		c-1.526-5.692-7.378-9.074-13.069-7.546c-5.693,1.526-9.072,7.377-7.546,13.069c19.672,73.415,77.5,131.241,150.916,150.916
		c0.925,0.249,1.855,0.367,2.769,0.367c4.711,0,9.024-3.145,10.301-7.912C215.36,448.958,211.981,443.106,206.289,441.581z"/>
	<path style="fill:#000003;" d="M305.719,70.497c66.074,17.705,118.121,69.75,135.826,135.825c1.277,4.768,5.59,7.912,10.302,7.912
		c0.912,0,1.843-0.118,2.768-0.367c5.692-1.526,9.071-7.377,7.545-13.07C442.487,127.38,384.659,69.553,311.242,49.881
		c-5.692-1.525-11.544,1.854-13.07,7.546C296.647,63.12,300.025,68.972,305.719,70.497z"/>
	<path style="fill:#000003;" d="M259.93,459.048c0.201-5.891-4.413-10.827-10.302-11.029c-2.705-0.093-5.396-0.238-7.994-0.432
		c-5.88-0.445-11,3.967-11.44,9.843c-0.441,5.878,3.967,10.999,9.843,11.44c2.888,0.217,5.87,0.379,8.864,0.48
		c0.124,0.004,0.247,0.006,0.37,0.006C254.996,469.355,259.732,464.814,259.93,459.048z"/>
	<path style="fill:#000003;" d="M262.375,64.057c2.724,0.094,5.415,0.241,7.999,0.434c0.273,0.019,0.542,0.03,0.811,0.03
		c5.53,0,10.208-4.269,10.63-9.873c0.44-5.877-3.967-10.999-9.844-11.44c-2.868-0.214-5.848-0.378-8.856-0.481
		c-5.915-0.205-10.832,4.405-11.036,10.296C251.874,58.912,256.483,63.853,262.375,64.057z"/>
</g>
</svg>
