<?xml version="1.0" encoding="utf-8"?>
<!-- Generator: Adobe Illustrator 27.0.0, SVG Export Plug-In . SVG Version: 6.00 Build 0)  -->
<svg version="1.1" id="Layer_1" xmlns="http://www.w3.org/2000/svg" xmlns:xlink="http://www.w3.org/1999/xlink" x="0px" y="0px"
	 viewBox="0 0 512 512" style="enable-background:new 0 0 512 512;" xml:space="preserve">
<style type="text/css">
	.st0{fill:#1467B3;}
</style>
<g id="_x23_1467b3ff">
	<path class="st0" d="M313.97,229.37c6.22-0.55,12.73,0.97,17.43,5.26c5.95,5.12,8.58,13.28,8.44,20.89
		c0.14,6.5-1.38,13.28-5.39,18.54c-3.6,4.84-9.27,7.75-15.22,8.44c-6.64,0.83-13.69-0.69-18.67-5.26
		c-5.81-5.12-8.3-13.14-8.16-20.75c-0.14-7.61,2.21-15.49,7.75-20.75C303.74,231.86,308.72,229.79,313.97,229.37 M313.7,238.64
		c-2.77,0.69-5.12,2.63-6.64,4.98c-2.35,3.6-3.04,8.02-3.18,12.31c0.14,4.43,0.83,8.85,3.32,12.59c1.94,2.9,5.12,4.98,8.58,4.84
		c3.6,0.28,6.92-1.8,8.85-4.7c3.18-4.7,3.6-10.65,3.18-16.18c-0.41-4.29-1.94-8.71-5.26-11.62
		C320.2,238.64,316.74,238.09,313.7,238.64z"/>
	<path class="st0" d="M402.92,229.37c6.22-0.55,12.73,0.97,17.43,5.12c5.95,5.12,8.58,13.28,8.44,21.03
		c0.14,6.5-1.38,13.28-5.39,18.54c-3.6,4.84-9.27,7.75-15.22,8.44c-6.64,0.83-13.83-0.69-18.67-5.26
		c-5.81-5.12-8.3-13.14-8.16-20.75c-0.14-7.47,2.21-15.35,7.75-20.75C392.68,232,397.8,229.79,402.92,229.37 M402.64,238.64
		c-2.77,0.69-5.12,2.63-6.64,4.98c-2.35,3.6-3.04,8.02-3.18,12.17c0.14,4.43,0.83,8.85,3.32,12.59c1.94,2.9,5.12,4.98,8.58,4.84
		c3.73,0.28,7.19-1.94,9.13-4.98c3.04-4.84,3.46-10.79,2.9-16.32c-0.55-4.15-2.07-8.58-5.39-11.34
		C409,238.64,405.68,238.09,402.64,238.64z"/>
	<path id="XMLID_9_" class="st0" d="M491.86,229.79c6.09-1.11,12.45-0.41,17.98,2.07c-0.83,3.18-1.8,6.22-2.49,9.41
		c-3.87-1.8-8.3-2.9-12.59-2.21c-2.21,0.41-4.7,1.94-4.84,4.43c-0.28,1.66,0.69,3.46,2.07,4.43c3.87,2.63,8.71,3.6,12.73,6.22
		c2.63,1.66,4.98,4.01,6.22,7.05c2.07,5.53,0.97,12.45-3.32,16.6c-3.6,3.6-8.71,4.98-13.69,5.26c-5.39,0.28-11.07-0.69-16.05-3.04
		c0.69-3.18,1.52-6.36,2.21-9.68c3.87,2.07,8.3,3.18,12.73,3.32c2.35-0.14,4.98-0.55,6.5-2.49c1.66-1.94,1.52-5.12-0.28-6.78
		c-2.9-2.9-7.19-3.46-10.65-5.39c-4.01-1.94-7.88-5.12-9.27-9.54c-1.24-4.29-0.55-9.27,2.21-12.86
		C483.84,232.55,487.71,230.48,491.86,229.79z"/>
	<path id="XMLID_8_" class="st0" d="M0.11,229.65c17.01,0,33.89,0,50.9,0c0,5.12,0,10.24,0,15.35c-4.84,0-9.68,0-14.66,0
		c0,12.31,0,24.76,0,37.21c-7.05,0-14.11,0-21.16,0c0.14-9.54,0-19.09,0-28.63c-0.28-2.9,0.28-5.67-0.14-8.58
		c-4.98,0.14-10.1,0-15.08,0C0.11,239.89,0.11,234.77,0.11,229.65z"/>
	<path id="XMLID_7_" class="st0" d="M65.67,229.79c7.05-0.28,14.11,0,21.3-0.14c0.55-0.14,0.97,0.14,1.24,0.69
		c6.78,17.29,13.42,34.58,20.2,51.87c-6.92-0.14-13.69,0-20.61,0c-3.73-10.37-7.19-20.89-10.93-31.12
		c-3.73,10.37-7.19,20.75-10.65,31.12c-6.78,0.14-13.56,0-20.33,0C52.39,264.65,59.03,247.22,65.67,229.79z"/>
	<path id="XMLID_6_" class="st0" d="M103.44,229.65c14.39,0,28.77,0,43.16,0c2.49,0,5.12-0.14,7.61,0.14c0,5.12,0,10.24,0,15.35
		c-4.84,0-9.68,0-14.66,0c0,12.45,0,24.76,0,37.21c-7.05,0-14.11,0-21.16,0c0-12.45,0-24.76,0-37.21c-4.98,0-10.1,0-15.08,0
		C103.44,239.89,103.44,234.77,103.44,229.65z"/>
	<path id="XMLID_5_" class="st0" d="M168.87,229.79c3.46-0.41,6.92,0,10.37-0.14c4.01,0.14,8.02-0.28,11.9,0.14
		c6.78,17.43,13.56,35,20.33,52.29c-6.92,0-13.83,0-20.61,0c-3.32-9.82-6.78-19.5-10.1-29.19c-0.28-0.55-0.28-1.24-0.97-1.38
		c-3.32,10.24-7.05,20.47-10.37,30.71c-6.78,0.14-13.56,0-20.47,0C155.59,264.65,162.36,247.22,168.87,229.79z"/>
	<path class="st0" d="M436.53,230.76c5.39-0.83,10.93-1.11,16.46-1.11c4.84,0.14,10.1,0.69,14.11,3.87
		c6.09,4.56,6.64,14.52,1.38,20.06c-1.52,1.66-3.32,2.9-5.26,3.6c2.63,1.38,4.7,3.73,5.67,6.5c2.07,5.81,2.77,12.17,4.98,17.98
		c-3.87-0.14-7.75,0-11.62-0.14c-1.52-4.15-2.49-8.44-3.46-12.59c-0.55-2.35-1.24-4.98-3.32-6.5c-2.35-1.66-5.39-1.24-8.02-1.24
		c0,6.78,0,13.56,0,20.47c-3.73,0-7.47,0-11.2,0C436.53,264.65,436.39,247.77,436.53,230.76 M447.6,238.78
		c0.14,4.7,0,9.41,0.14,14.11c3.32-0.14,7.05,0.41,10.1-1.38c4.15-2.35,4.43-9.27,0.28-11.76
		C454.93,237.81,451.06,238.5,447.6,238.78z"/>
	<path id="XMLID_2_" class="st0" d="M234.16,230.2c4.98,0,10.1,0,15.08,0c3.18,11.76,6.92,23.52,9.13,35.55
		c0.55-0.55,0.55-1.24,0.69-2.07c2.49-11.34,6.09-22.55,9.54-33.61c4.98,0,9.82,0,14.8,0c0.69,17.15,1.8,34.31,2.49,51.46
		c-3.6,0-7.33,0-10.93,0c-0.28-10.65-0.97-21.44-1.11-32.09c0-2.9-0.14-5.95-0.14-8.85c-3.6,13.56-7.75,26.84-11.76,40.12
		c-2.9,0-5.81,0-8.71,0c-2.9-11.48-6.36-22.96-8.71-34.58c-0.41-1.8-0.55-3.73-1.24-5.67c-0.28,13.69-1.11,27.39-1.66,41.08
		c-3.46,0-6.92,0-10.37,0C232.08,264.51,233.33,247.36,234.16,230.2z"/>
	<path id="XMLID_14_" class="st0" d="M341.36,230.2c12.73,0,25.31,0,38.04,0c0,3.18,0,6.5,0,9.68c-4.43,0.14-8.99,0-13.42,0
		c0,13.97,0,27.8,0,41.78c-3.73,0-7.47,0-11.2,0c0-13.83,0-27.8,0-41.78c-4.43,0-8.85,0-13.28,0
		C341.36,236.7,341.36,233.38,341.36,230.2z"/>
</g>
</svg>
